<svg xmlns="http://www.w3.org/2000/svg" class="cwl-workflow nYIBJn __plugin-port-drag __plugin-validate __plugin-selection __plugin-update" ct-click="" tabindex="-1" ct-drop-enabled="" ct-drop-zones="graph-editor">
            <rect x="0" y="0" width="100%" height="100%" class="pan-handle" transform="matrix(1,0,0,1,0,0)" style="fill:rgb(48, 48, 48); stroke:none; stroke-width:1px; "/>
            <g class="workflow" transform="matrix(1 0 0 1 42.0414 43)">
            <g tabindex="-1" class="edge " data-source-port="repo" data-destination-port="repo" data-source-node="repo" data-source-connection="out/repo/repo" data-destination-connection="in/step1/repo" data-destination-node="step1">
                <path class="sub-edge outer" d="M 37 53.5 C 50.9453125 53.5 50.9453125 46.50000000000001 64.890625 46.50000000000001" style="fill:none; stroke:rgb(48, 48, 48); stroke-width:7px; "/>
                <path class="sub-edge inner" d="M 37 53.5 C 50.9453125 53.5 50.9453125 46.50000000000001 64.890625 46.50000000000001" style="fill:none; stroke:rgb(154, 154, 154); stroke-width:2px; "/>
            </g>
        
            <g tabindex="-1" class="edge " data-source-port="DoubleMu.root" data-destination-port="DoubleMu.root" data-source-node="step1" data-source-connection="out/step1/DoubleMu.root" data-destination-connection="in/DoubleMu.root/DoubleMu.root" data-destination-node="DoubleMu.root">
                <path class="sub-edge outer" d="M 149.29213333129883 63.92750930786133 C 214.19056129455566 63.92750930786133 214.19056129455566 107 279.0889892578125 107" style="fill:none; stroke:rgb(48, 48, 48); stroke-width:7px; "/>
                <path class="sub-edge inner" d="M 149.29213333129883 63.92750930786133 C 214.19056129455566 63.92750930786133 214.19056129455566 107 279.0889892578125 107" style="fill:none; stroke:rgb(154, 154, 154); stroke-width:2px; "/>
            </g>
        
            <g tabindex="-1" class="edge __validate-invalid" data-source-port="step1.log" data-destination-port="step1.log" data-source-node="step1" data-source-connection="out/step1/step1.log" data-destination-connection="in/step1.log/step1.log" data-destination-node="step1.log">
                <path class="sub-edge outer" d="M 149.29213333129883 29.072490692138672 C 214.19056129455566 29.072490692138672 214.19056129455566 4.53119343397446e-15 279.0889892578125 4.53119343397446e-15" style="fill:none; stroke:rgb(48, 48, 48); stroke-width:7px; "/>
                <path class="sub-edge inner" d="M 149.29213333129883 29.072490692138672 C 214.19056129455566 29.072490692138672 214.19056129455566 4.53119343397446e-15 279.0889892578125 4.53119343397446e-15" style="fill:none; stroke:rgb(248, 148, 6); stroke-width:2px; "/>
            </g>
        
            
        
            
        
            
        
            
        
            
        
            
        
            
        
            
        
            
        
            
        
            
        
            
        
            
        
            
        
            
        
            
        <g tabindex="-1" class="node output type-File " data-connection-id="in/step1.log/step1.log" transform="matrix(1, 0, 0, 1, 316.0889892578125, 0)" data-id="step1.log">
               
                <g class="core" transform="matrix(1, 0, 0, 1, 0, 0)">
                    <circle cx="0" cy="0" r="37" class="outer" style="fill:rgb(48, 48, 48); stroke:rgb(154, 154, 154); stroke-width:2px; "/>
                    <circle cx="0" cy="0" r="27.75" class="inner" style="fill:rgb(195, 195, 195); stroke:none; stroke-width:1px; "/>
                    
                    <svg class="node-icon" xmlns="http://www.w3.org/2000/svg" viewBox="0 0 499 462.86" x="-7" y="-11" width="20" height="20"><title>file_output</title><polygon points="387.81 1.06 387.81 1.75 387.12 1.06 387.81 1.06" style="stroke:rgb(48, 48, 48); fill:rgb(48, 48, 48); "/><polygon points="499 231 385.32 344.68 349.96 309.32 403.28 256 208.64 256 208.64 206 403.28 206 350.96 153.68 386.32 118.32 499 231" style="stroke:rgb(48, 48, 48); fill:rgb(48, 48, 48); "/><path d="M187.81,163.38l77.69.22H324V112.94L211.06,0H0V462.86H324V298.5H274V412.86H50V50H162.81V163.38Zm25-90.92,41.1,41.1-41.1-.11Z" style="fill:rgb(48, 48, 48); stroke:rgb(48, 48, 48); stroke-width:3px; "/></svg>
                </g>
                
                <text transform="matrix(1 0 0 1 0 67)" class="title label" style="fill:rgb(255, 255, 255); font-size:13px; text-anchor:middle; font-family:sans-serif; ">step1.log</text>
                
                
            <g class="port input-port" transform="matrix(1, 0, 0, 1, -37, 4.531193156845207e-15)" data-connection-id="in/step1.log/step1.log" data-port-id="step1.log">
                <g class="io-port">
                    <circle cx="0" cy="0" r="7" class="port-handle" style="fill:rgb(195, 195, 195); stroke:none; stroke-width:1px; "/>
                </g>
                
            </g>
            
        
                
            </g><g tabindex="-1" class="node input type-string " data-connection-id="out/repo/repo" transform="matrix(1, 0, 0, 1, 0, 53.5)" data-id="repo">
               
                <g class="core" transform="matrix(1, 0, 0, 1, 0, 0)">
                    <circle cx="0" cy="0" r="37" class="outer" style="fill:rgb(48, 48, 48); stroke:rgb(154, 154, 154); stroke-width:2px; "/>
                    <circle cx="0" cy="0" r="27.75" class="inner" style="fill:rgb(195, 195, 195); stroke:none; stroke-width:1px; "/>
                    
                    <svg class="node-icon" xmlns="http://www.w3.org/2000/svg" viewBox="0 0 499 365" x="-11" y="-10" width="20" height="20"><title>type_input</title><g id="input"><path d="M316.5,68a181.72,181.72,0,0,0-114.12,40.09L238,143.72a132.5,132.5,0,1,1,1.16,214.39L203.48,393.8A182.5,182.5,0,1,0,316.5,68Z" transform="translate(0 -68)" style="fill:rgb(48, 48, 48); stroke:rgb(48, 48, 48); stroke-width:3px; "/><g id="Layer_22" data-name="Layer 22"><g id="Layer_9_copy_4" data-name="Layer 9 copy 4"><polygon points="290.36 182 176.68 295.68 141.32 260.32 194.64 207 0 207 0 157 194.64 157 142.32 104.68 177.68 69.32 290.36 182" style="stroke:rgb(48, 48, 48); fill:rgb(48, 48, 48); "/></g></g></g></svg>
                </g>
                
                <text transform="matrix(1 0 0 1 0 67)" class="title label" style="fill:rgb(255, 255, 255); font-size:13px; text-anchor:middle; font-family:sans-serif; ">repo</text>
                
                
                
            <g class="port output-port" transform="matrix(1, 0, 0, 1, 37, 0)" data-connection-id="out/repo/repo" data-port-id="repo">
                <g class="io-port">
                    <circle cx="0" cy="0" r="7" class="port-handle" style="fill:rgb(195, 195, 195); stroke:none; stroke-width:1px; "/>
                </g>
                
            </g>
            
        
            </g><g tabindex="-1" class="node step  " data-connection-id="step1" transform="matrix(1, 0, 0, 1, 108.890625, 46.5)" data-id="step1">
               
                <g class="core" transform="matrix(1, 0, 0, 1, 0, 0)">
                    <circle cx="0" cy="0" r="44" class="outer" style="fill:rgb(48, 48, 48); stroke:rgb(154, 154, 154); stroke-width:2px; "/>
                    <circle cx="0" cy="0" r="33" class="inner" style="fill:rgb(17, 167, 167); stroke:none; stroke-width:1px; "/>
                    
                    <svg class="node-icon" xmlns="http://www.w3.org/2000/svg" viewBox="0 0 398.39 397.78" x="-10" y="-8" width="20" height="15"><title>tool2</title><polygon points="38.77 397.57 0 366 136.15 198.78 0 31.57 38.77 0 200.63 198.78 38.77 397.57" style="stroke:rgb(48, 48, 48); fill:rgb(48, 48, 48); "/><rect x="198.39" y="347.78" width="200" height="50" style="fill:rgb(48, 48, 48); stroke:rgb(48, 48, 48); stroke-width:3px; "/></svg>
                </g>
                
                <text transform="matrix(1 0 0 1 0 74)" class="title label" style="fill:rgb(255, 255, 255); font-size:13px; text-anchor:middle; font-family:sans-serif; ">step1</text>
                
                
            <g class="port input-port" transform="matrix(1, 0, 0, 1, -44, 5.3884459162483544e-15)" data-connection-id="in/step1/repo" data-port-id="repo">
                <g class="io-port">
                    <circle cx="0" cy="0" r="7" class="port-handle" style="fill:rgb(195, 195, 195); stroke:none; stroke-width:1px; "/>
                </g>
                
            </g>
            
        
                
            <g class="port output-port" transform="matrix(1, 0, 0, 1, 40.401508509347615, -17.427510154038423)" data-connection-id="out/step1/step1.log" data-port-id="step1.log">
                <g class="io-port">
                    <circle cx="0" cy="0" r="7" class="port-handle" style="fill:rgb(195, 195, 195); stroke:none; stroke-width:1px; "/>
                </g>
                
            </g>
            
        
            <g class="port output-port" transform="matrix(1, 0, 0, 1, 40.401508509347615, 17.427510154038423)" data-connection-id="out/step1/DoubleMu.root" data-port-id="DoubleMu.root">
                <g class="io-port">
                    <circle cx="0" cy="0" r="7" class="port-handle" style="fill:rgb(195, 195, 195); stroke:none; stroke-width:1px; "/>
                </g>
                
            </g>
            
        
            </g><g tabindex="-1" class="node output type-File " data-connection-id="in/DoubleMu.root/DoubleMu.root" transform="matrix(1, 0, 0, 1, 316.0889892578125, 107)" data-id="DoubleMu.root">
               
                <g class="core" transform="matrix(1, 0, 0, 1, 0, 0)">
                    <circle cx="0" cy="0" r="37" class="outer" style="fill:rgb(48, 48, 48); stroke:rgb(154, 154, 154); stroke-width:2px; "/>
                    <circle cx="0" cy="0" r="27.75" class="inner" style="fill:rgb(195, 195, 195); stroke:none; stroke-width:1px; "/>
                    
                    <svg class="node-icon" xmlns="http://www.w3.org/2000/svg" viewBox="0 0 499 462.86" x="-7" y="-11" width="20" height="20"><title>file_output</title><polygon points="387.81 1.06 387.81 1.75 387.12 1.06 387.81 1.06" style="stroke:rgb(48, 48, 48); fill:rgb(48, 48, 48); "/><polygon points="499 231 385.32 344.68 349.96 309.32 403.28 256 208.64 256 208.64 206 403.28 206 350.96 153.68 386.32 118.32 499 231" style="stroke:rgb(48, 48, 48); fill:rgb(48, 48, 48); "/><path d="M187.81,163.38l77.69.22H324V112.94L211.06,0H0V462.86H324V298.5H274V412.86H50V50H162.81V163.38Zm25-90.92,41.1,41.1-41.1-.11Z" style="fill:rgb(48, 48, 48); stroke:rgb(48, 48, 48); stroke-width:3px; "/></svg>
                </g>
                
                <text transform="matrix(1 0 0 1 0 67)" class="title label" style="fill:rgb(255, 255, 255); font-size:13px; text-anchor:middle; font-family:sans-serif; ">DoubleMu.root</text>
                
                
            <g class="port input-port" transform="matrix(1, 0, 0, 1, -37, 4.531193156845207e-15)" data-connection-id="in/DoubleMu.root/DoubleMu.root" data-port-id="DoubleMu.root">
                <g class="io-port">
                    <circle cx="0" cy="0" r="7" class="port-handle" style="fill:rgb(195, 195, 195); stroke:none; stroke-width:1px; "/>
                </g>
                
            </g>
            
        
                
            </g></g>
        </svg>